PathFileType        4      (X/Y/Z)      C:\Users\ibrah\OneDrive - KTH\Model Validation - Orthoload\rmr-solver-1.0 - original\rmr-solver-1.0\ExperimentalData\S8R\trc\transformed_MSffkg1.trc         
DataRate	CameraRate	NumFrames	NumMarkers	Units	OrigDataRate	OrigDataStartFrame	OrigNumFrames
50.0	50.0	6	27	mm	50.0	213	566
Frame#	Time	IJ			PX			C7			T8			SC			AA			TS			AI			PC			ACv			ACd			GH			EM			EL			EM2			EL2			US			RS			US2			RS2			MCP2			MCP5			SCREWAA			SCREWTS			SCREWAI			ACvloc			ACdloc			
		X1	Y1	Z1	X2	Y2	Z2	X3	Y3	Z3	X4	Y4	Z4	X5	Y5	Z5	X6	Y6	Z6	X7	Y7	Z7	X8	Y8	Z8	X9	Y9	Z9	X10	Y10	Z10	X11	Y11	Z11	X12	Y12	Z12	X13	Y13	Z13	X14	Y14	Z14	X15	Y15	Z15	X16	Y16	Z16	X17	Y17	Z17	X18	Y18	Z18	X19	Y19	Z19	X20	Y20	Z20	X21	Y21	Z21	X22	Y22	Z22	X23	Y23	Z23	X24	Y24	Z24	X25	Y25	Z25	X26	Y26	Z26	X27	Y27	Z27	
213	4.24	-25.68360349905595	7.256334245234285	28.58902151990227	33.9479215147643	-129.5158732918429	31.04199458080976	-159.6879535531425	87.0771336064831	28.31158554362008	-216.6746579689685	-116.5696943422274	27.32916917861361	-32.78026021847366	16.14872837207724	52.6266936238666	-137.7562620478705	8.378180263355551	219.5214714626376	-190.930386665157	10.59270573785272	135.5934958558818	-200.7564191959101	-153.7594992529208	113.3293021991083	-70.66172305874133	14.26862870179476	169.4305116104732	-115.9257090067713	42.83296847097737	201.5441708978994	-115.9257090067713	42.83296847097737	201.5441708978994	-127.4287721344488	-29.66197484568	228.587766782505	-140.0347040790534	-319.7391448218394	219.899416557262	-141.9275480523532	-310.1325669162716	291.1134243166514													-89.31219541370571	-537.827390032083	304.1971362033893	-139.7460873298297	-540.8221925300136	333.8000954059589																						
214	4.26	-24.88969559009704	7.099795084458063	28.6793842311026	34.3649603318398	-129.831324487787	31.29914987511009	-158.6752343381714	87.28236464608266	28.08362086911324	-216.2105390397047	-116.2072221458932	27.02485040214179	-32.01607923994142	16.01687520891533	52.69892154627636	-137.3030464275507	8.664548563161205	219.3248561137857	-190.3016249263679	11.09809492646302	135.2994240922482	-200.5570173097961	-153.2013771557545	112.8853134930272	-70.09965340419406	14.40405717160511	169.3718294578594	-115.3399785225437	43.07023390259786	201.4186393629621	-115.3399785225437	43.07023390259786	201.4186393629621	-127.2869814481253	-29.37793067098726	228.3298506182514	-141.1323510895498	-319.4101650906047	219.5533107802015	-143.1127915245966	-309.7946291367185	290.7463242078678													-92.13825004471319	-537.8256993996811	304.189609044485	-142.751271420099	-540.4561631243066	333.5001297085102																						
215	4.28	-24.19549845598398	6.963923084615751	28.73958749967188	34.71166766909212	-130.1128954271609	31.51169212861554	-157.7787683165312	87.47932086022996	27.85132764098524	-215.8191548107858	-115.864441993156	26.7202438175223	-31.34925387724021	15.90373309219703	52.74249766431694	-136.9225129353517	8.905407686788335	219.1174401238292	-189.7637082150155	11.54025585827823	135.0042551797127	-200.3874141134643	-152.7112864167789	112.4321593214391	-69.62160953543298	14.52362800082958	169.2901613573457	-114.8439346218886	43.27207881659687	201.2802810626731	-114.8439346218886	43.27207881659687	201.2802810626731	-127.1869512235978	-29.15500393196673	228.0485409471447	-141.9634565778191	-319.15420539196	219.2232722301398	-144.0442849809856	-309.5248474805485	290.3996729130652													-94.38823109812338	-537.8104832770102	304.1697926452866	-145.1690085305895	-540.157176824797	333.1939252138587																						
216	4.3	-23.59048617525546	6.847416230608086	28.76629567781842	34.9989459781885	-130.3622287800332	31.66867980552685	-156.9884989449264	87.66681313381454	27.62224515090035	-215.4906720520854	-115.5429965027161	26.42101286719824	-30.76769894616564	15.80733262183854	52.75482283317929	-136.5963828567629	9.09681767942748	218.9069809138843	-189.303574940654	11.9141572494561	134.7181246243861	-200.2389205291135	-152.2954292904717	111.984968330842	-69.21120854875959	14.62063203127655	169.1890600033034	-114.4194091806755	43.43377277231551	201.1345674510711	-114.4194091806755	43.43377277231551	201.1345674510711	-127.1052801171003	-28.99568742419976	227.7586382523018	-142.525264591925	-318.9721655697481	218.8969016257615	-144.7240853549428	-309.3313412003928	290.0631405577025													-96.0792594516063	-537.7974801655447	304.142657743399	-147.0205679390799	-539.9376585390584	332.883771876979																						
217	4.32	-23.06377657869918	6.74819816773598	28.75623618470322	35.2372299893623	-130.5819998770932	31.76037971138606	-156.2934802598131	87.84361458166723	27.40295485577066	-215.2154931061241	-115.2441286103044	26.13305129337478	-30.2590131572391	15.72511373697099	52.73327169165546	-136.3046160605761	9.236480540437894	218.701588244301	-188.9066144903206	12.21589164806067	134.4517099053599	-200.1015398578878	-151.9586134810916	111.560867318939	-68.85063206104839	14.68952191376315	169.0720159118164	-114.0465504379373	43.55197720554909	200.9869048605584	-114.0465504379373	43.55197720554909	200.9869048605584	-127.0187672639663	-28.9012696898663	227.4724453553816	-142.8197999082344	-318.8631004635448	218.5671775528418	-145.1544054251002	-309.2184769333434	289.7313404662823													-97.22616598760393	-537.7943511724608	304.1159840205399	-148.3233137431207	-539.8022418036862	332.5760908434007																						
218	4.34	-22.60441164021653	6.66345617095748	28.70631673063195	35.4361067623617	-130.7759086842619	31.77863544082317	-155.6820808880539	88.00858250014657	27.19891048851903	-214.9845725477434	-114.9685145560086	25.86248179520909	-29.81078575556797	15.65399863858282	52.67528539021345	-136.025459708708	9.323721036238494	218.5095025001995	-188.5567079552388	12.44291954489023	134.2160945949393	-199.9641993038112	-151.7039533143656	111.1784746313076	-68.52073996883684	14.72596015805751	168.9422698022594	-113.7038561543855	43.62475462605589	200.8425025784678	-113.7038561543855	43.62475462605589	200.8425025784678	-126.904534479448	-28.87191116294232	227.199452211792	-142.8532749297194	-318.8248585972092	218.2326857693918	-145.3365401251229	-309.1874570802451	289.4039819929325													-97.84073936256178	-537.802163002221	304.0994087852764	-149.0898197424296	-539.7491872449996	332.2809300538736																						
